HIERARCHY
ROOT Hips
{
	OFFSET 0.000000 0.000000 0.000000 
	CHANNELS 6 Xposition Yposition Zposition Zrotation Xrotation Yrotation
	JOINT Spine
	{
		OFFSET -0.000000 8.061080 0.000000 
		CHANNELS 3 Zrotation Xrotation Yrotation
		JOINT Spine1
		{
			OFFSET -0.000000 20.532677 0.000000 
			CHANNELS 3 Zrotation Xrotation Yrotation
			JOINT Neck
			{
				OFFSET -0.000000 22.498795 0.000000 
				CHANNELS 3 Zrotation Xrotation Yrotation
				JOINT Head
				{
					OFFSET -0.000000 15.237408 1.966117 
					CHANNELS 3 Zrotation Xrotation Yrotation
					End Site
					{
						OFFSET -0.000000 19.661171 0.000000 
					}
				}
			}
			JOINT LeftShoulder
			{
				OFFSET 3.894675 16.042269 -0.398189 
				CHANNELS 3 Zrotation Xrotation Yrotation
				JOINT LeftArm
				{
					OFFSET 19.709621 0.000000 0.000000 
					CHANNELS 3 Zrotation Xrotation Yrotation
					JOINT LeftForeArm
					{
						OFFSET 25.566900 0.000000 0.000000 
						CHANNELS 3 Zrotation Xrotation Yrotation
						JOINT LeftHand
						{
							OFFSET 25.401896 0.000000 0.000000 
							CHANNELS 3 Zrotation Xrotation Yrotation
							End Site
							{
								OFFSET 14.745877 0.000000 0.000000 
							}
						}
					}
				}
			}
			JOINT RightShoulder
			{
				OFFSET -3.930777 16.042269 -0.398189 
				CHANNELS 3 Zrotation Xrotation Yrotation
				JOINT RightArm
				{
					OFFSET -19.709621 0.000000 0.000000 
					CHANNELS 3 Zrotation Xrotation Yrotation
					JOINT RightForeArm
					{
						OFFSET -25.566900 0.000000 0.000000 
						CHANNELS 3 Zrotation Xrotation Yrotation
						JOINT RightHand
						{
							OFFSET -25.401896 0.000000 0.000000 
							CHANNELS 3 Zrotation Xrotation Yrotation
							End Site
							{
								OFFSET -14.745877 0.000000 0.000000 
							}
						}
					}
				}
			}
		}
	}
	JOINT LeftUpLeg
	{
		OFFSET 9.830585 0.000000 0.000000 
		CHANNELS 3 Zrotation Xrotation Yrotation
		JOINT LeftLeg
		{
			OFFSET -0.000000 -46.474842 0.000000 
			CHANNELS 3 Zrotation Xrotation Yrotation
			JOINT LeftFoot
			{
				OFFSET -0.000000 -30.290520 0.000000 
				CHANNELS 3 Zrotation Xrotation Yrotation
				JOINT LeftToeBase
				{
					OFFSET -0.000000 -6.389880 14.745877 
					CHANNELS 3 Zrotation Xrotation Yrotation
					End Site
					{
						OFFSET -0.000000 0.000000 3.932234 
					}
				}
			}
		}
	}
	JOINT RightUpLeg
	{
		OFFSET -9.830585 0.000000 0.000000 
		CHANNELS 3 Zrotation Xrotation Yrotation
		JOINT RightLeg
		{
			OFFSET -0.000000 -46.474842 0.000000 
			CHANNELS 3 Zrotation Xrotation Yrotation
			JOINT RightFoot
			{
				OFFSET -0.000000 -30.290520 0.000000 
				CHANNELS 3 Zrotation Xrotation Yrotation
				JOINT RightToeBase
				{
					OFFSET -0.000000 -6.389880 14.745877 
					CHANNELS 3 Zrotation Xrotation Yrotation
					End Site
					{
						OFFSET -0.000000 0.000000 3.932234 
					}
				}
			}
		}
	}
}
MOTION
Frames: 6
Frame Time: 0.010000
0.000000 85.606873 0.000000 -2.641877 7.295722 5.898143 2.073061 -6.607195 -0.067691 1.117301 -3.515953 -0.030916 2.751629 6.656186 1.808894 -0.306967 8.020398 2.457320 2.496972 9.220980 -1.035848 -69.117493 26.538382 -24.166243 -12.664925 1.062787 -4.651509 4.643962 0.829724 6.980067 -8.049474 9.235000 -9.463368 51.213577 54.569195 42.981907 4.326199 -6.444555 9.037593 3.596879 -6.657421 4.068721 3.336198 0.641363 6.927857 1.951139 -8.821692 5.712285 1.432082 5.666075 0.462739 0.000000 0.000000 0.000000 -8.196610 -6.348003 4.262434 8.429647 1.561523 -18.772873 -5.996652 5.255280 -8.718034 0.000000 0.000000 0.000000 
-0.002279 85.606071 0.042707 -2.564547 7.200204 5.924772 1.977928 -6.499278 -0.113900 1.128359 -3.532651 -0.042884 2.806770 6.654840 1.823428 -0.354514 8.003254 2.492223 2.564202 9.274260 -0.857011 -69.062492 26.691797 -24.388763 -12.704499 1.039691 -4.569055 4.604788 0.811552 6.973800 -8.023961 9.115237 -9.404515 51.080177 54.871307 42.982922 4.215502 -6.587781 9.044627 3.394062 -6.795993 4.181004 3.278962 0.776509 6.888936 1.936251 -8.850267 5.697433 1.420895 5.704913 0.483190 0.000000 0.000000 0.000000 -8.277476 -6.213024 4.298707 8.431704 1.585835 -19.413363 -5.992837 5.109991 -8.079390 0.000000 0.000000 0.000000 
-0.003506 85.606438 0.046472 -2.566084 7.199255 5.931407 1.977209 -6.479277 -0.119306 1.129661 -3.556334 -0.043892 2.814019 6.653378 1.823431 -0.362706 8.010884 2.495199 2.523602 9.482110 -0.864755 -68.917717 26.621592 -24.598078 -12.706956 1.024501 -4.584800 4.644340 0.796808 6.969377 -8.019300 9.120345 -9.410452 51.050472 54.874966 43.006100 4.222880 -6.592519 9.043793 3.353872 -6.803177 4.165811 3.281353 0.775672 6.897922 1.935582 -8.839859 5.673353 1.426237 5.694165 0.485425 0.000000 0.000000 0.000000 -8.274246 -6.209639 4.291177 8.431870 1.585545 -19.417610 -5.981036 5.116260 -8.087556 0.000000 0.000000 0.000000 
-0.012073 85.612030 0.050548 -2.584449 7.225036 5.930159 2.034472 -6.533417 -0.083848 1.060591 -3.529682 -0.036385 2.827588 6.672956 1.809267 -0.348290 8.000268 2.480786 2.547001 9.043649 -1.081657 -69.108353 26.903748 -24.045925 -12.560852 0.904300 -4.644340 4.581019 0.670953 6.940774 -8.032261 9.186780 -9.407036 51.533047 54.525459 42.654961 4.293373 -6.393730 9.043232 3.337480 -6.610928 4.154283 3.308653 0.746501 6.903767 1.924797 -8.832594 5.661175 1.377396 5.697740 0.527592 0.000000 0.000000 0.000000 -8.248226 -6.235522 4.313842 8.420059 1.576793 -19.416117 -5.949937 5.138126 -8.141769 0.000000 0.000000 0.000000 
-0.007552 85.600800 0.046679 -2.628307 7.285513 5.942096 2.057902 -6.549767 -0.119324 1.117479 -3.601774 -0.046026 2.752150 6.682766 1.835642 -0.306567 8.020603 2.485603 2.488489 9.253604 -0.967963 -69.069954 26.625908 -24.208546 -12.674713 1.030827 -4.660315 4.642475 0.796413 6.980972 -8.061160 9.205715 -9.399400 51.322632 54.615440 42.838356 4.182576 -7.200209 9.061113 3.616766 -7.399683 4.130373 3.337780 0.683617 6.899284 1.937180 -8.834294 5.669855 1.422613 5.655762 0.489225 0.000000 0.000000 0.000000 -8.218154 -6.302559 4.279891 8.423710 1.591025 -19.427589 -5.980306 5.121357 -8.070610 0.000000 0.000000 0.000000 
0.001015 85.608154 0.057834 -2.566690 7.204683 5.889654 1.955800 -6.527186 -0.056435 1.162148 -3.478626 -0.023285 2.814891 6.649880 1.819426 -0.332063 7.964128 2.484972 2.571905 9.230267 -0.978121 -69.121750 26.642262 -24.353855 -12.658377 1.052344 -4.559964 4.571156 0.825435 6.984510 -7.997588 9.113987 -9.502192 50.920338 54.825748 43.136864 4.285791 -6.631528 9.001544 3.429367 -6.843122 4.155213 3.276874 0.790598 6.921702 1.941470 -8.858883 5.688644 1.382254 5.718105 0.509725 0.000000 0.000000 0.000000 -8.266874 -6.224149 4.272832 8.427538 1.614938 -19.321918 -5.995661 5.104839 -8.124906 0.000000 0.000000 0.000000 
